<svg xmlns="http://www.w3.org/2000/svg" viewBox="0 0 164 409" id="el_LHBcUczl_"><style>@-webkit-keyframes el_-CNybAZK5Kg_LSwl-PU-z_Animation{50%{-webkit-transform: scale(1, 1);transform: scale(1, 1);}62.50%{-webkit-transform: scale(1, 0);transform: scale(1, 0);}70.83%{-webkit-transform: scale(1, 1);transform: scale(1, 1);}0%{-webkit-transform: scale(1, 1);transform: scale(1, 1);}100%{-webkit-transform: scale(1, 1);transform: scale(1, 1);}}@keyframes el_-CNybAZK5Kg_LSwl-PU-z_Animation{50%{-webkit-transform: scale(1, 1);transform: scale(1, 1);}62.50%{-webkit-transform: scale(1, 0);transform: scale(1, 0);}70.83%{-webkit-transform: scale(1, 1);transform: scale(1, 1);}0%{-webkit-transform: scale(1, 1);transform: scale(1, 1);}100%{-webkit-transform: scale(1, 1);transform: scale(1, 1);}}#el_LHBcUczl_ *{-webkit-animation-duration: 0.8s;animation-duration: 0.8s;-webkit-animation-iteration-count: infinite;animation-iteration-count: infinite;-webkit-animation-timing-function: cubic-bezier(0, 0, 1, 1);animation-timing-function: cubic-bezier(0, 0, 1, 1);}#el_dcO2NfoE1W{fill: #eec09b;}#el_3FZk6c-L-s{fill: #004d42;-webkit-transform: translate(-528.56px, -261.75px);transform: translate(-528.56px, -261.75px);}#el_ECoLvkwecX{fill: #666;}#el_Rhey6LWohv{fill: #eec09b;}#el_vawPUyZJpg{fill: #005c37;-webkit-transform: translate(-528.56px, -261.75px);transform: translate(-528.56px, -261.75px);}#el_n5FaNdxsH_{fill: #1a1a1a;}#el_CXSO99E4SW{fill: #1a1a1a;}#el_mxtRiZI8y5{fill: #1a1a1a;}#el_q0bBFFJ7k4{fill: #b3b3b3;}#el_vo_GpopTyv{fill: #1a1a1a;}#el_2qLjfSJ_CO{fill: #1a1a1a;}#el_1Ny0nGiKj-{fill: #1a1a1a;}#el_tw9WDr0kQb{fill: #b3b3b3;}#el_emQJIgh2PDM{fill: #eec09b;}#el_pNuD9pQxWCP{fill: #42210b;-webkit-transform: translate(-620.91px, -56.96px) rotate(-17.86deg);transform: translate(-620.91px, -56.96px) rotate(-17.86deg);}#el_P3tAGxAzjTJ{fill: #42210b;}#el_K4DNTOeYRhJ{fill: #42210b;}#el_Cxa58CKGyBS{fill: #42210b;}#el_xgbnRf3GQL0{fill: #ebc19f;}#el_voGzDAT1IJW{fill: #1a1a1a;-webkit-transform: translate(-528.56px, -261.75px);transform: translate(-528.56px, -261.75px);}#el_LGNDAB6saGs{fill: #ebc19f;}#el_XZ3kbtvjews{fill: #42210b;}#el_XRxydcHf8iq{fill: #1a1a1a;}#el_781DKqaTVWF{fill: #ebc19f;}#el_ESWFFHGxv0s{fill: #ebc19f;}#el_d4Ykdh7voD-{fill: #1a1a1a;}#el_UsHhQam1YHl{fill: #ebc19f;}#el_-CNybAZK5Kg{fill: #fff;}#el_At2P61fV_3Q{fill: #42210b;}#el_-CNybAZK5Kg_LSwl-PU-z{-webkit-animation-name: el_-CNybAZK5Kg_LSwl-PU-z_Animation;animation-name: el_-CNybAZK5Kg_LSwl-PU-z_Animation;-webkit-transform-origin: 50% 50%;transform-origin: 50% 50%;transform-box: fill-box;}</style><defs/><title>character-face</title><g id="el_y__gbTTHSf" data-name="Layer 3"><circle cx="31.04" cy="301.28" r="25.43" id="el_dcO2NfoE1W"/><path d="M592,428.64H559.13a25,25,0,0,0-25,25V563H592a25,25,0,0,0,25-25V453.6A25,25,0,0,0,592,428.64Z" id="el_3FZk6c-L-s"/><polygon points="22.5 300.72 22.5 343.04 22.5 409.87 70.5 409.87 70.5 343.04 88.41 343.04 88.41 409.87 137.52 409.87 137.52 343.04 137.52 300.72 22.5 300.72" id="el_ECoLvkwecX"/><circle cx="137.52" cy="301.28" r="25.43" id="el_Rhey6LWohv"/><path d="M664,428.64H579.75c-15.78,0-28.7,12.61-28.7,28V563H692.71V456.66C692.71,441.25,679.79,428.64,664,428.64Z" id="el_vawPUyZJpg"/><rect x="91.87" y="378.51" width="45.65" height="31.37" id="el_n5FaNdxsH_"/><circle cx="91.87" cy="394.19" r="15.68" id="el_CXSO99E4SW"/><rect x="76.18" y="394.19" width="60.96" height="15.68" id="el_mxtRiZI8y5"/><rect x="76.18" y="406.2" width="61.34" height="3.68" id="el_q0bBFFJ7k4"/><rect x="24.85" y="378.51" width="45.65" height="31.37" id="el_vo_GpopTyv"/><circle cx="24.85" cy="394.19" r="15.68" id="el_2qLjfSJ_CO"/><rect x="9.17" y="394.19" width="60.96" height="15.68" id="el_1Ny0nGiKj-"/><rect x="9.17" y="406.2" width="61.34" height="3.68" id="el_tw9WDr0kQb"/></g><g id="el_X4tYM1oX4V" data-name="Layer 2"><rect x="59.48" y="149.59" width="50.53" height="17.2" id="el_emQJIgh2PDM"/><rect x="564.55" y="370.97" width="81.54" height="50.46" rx="25.23" ry="25.23" id="el_pNuD9pQxWCP"/><rect x="113.95" y="23.69" width="47.15" height="96.01" rx="23.57" ry="23.57" id="el_P3tAGxAzjTJ"/><ellipse cx="46.97" cy="38.33" rx="31.4" ry="38.33" id="el_K4DNTOeYRhJ"/><rect x="27.61" y="7.02" width="114.27" height="42.08" rx="21.04" ry="21.04" id="el_Cxa58CKGyBS"/><rect x="25.54" y="61.63" width="103.64" height="93.31" rx="37.23" ry="37.23" id="el_xgbnRf3GQL0"/><path d="M561.79,341.09H535.24a6.7,6.7,0,0,0-6.68,6.69v19.84a6.7,6.7,0,0,0,6.68,6.68h26.55a6.7,6.7,0,0,0,6.68-6.68V347.78A6.71,6.71,0,0,0,561.79,341.09Zm1.06,25.27a3.69,3.69,0,0,1-3.68,3.68H537.85a3.7,3.7,0,0,1-3.68-3.68V352.08a3.69,3.69,0,0,1,3.68-3.68h21.32a3.68,3.68,0,0,1,3.68,3.68Z" id="el_voGzDAT1IJW"/><rect x="19.95" y="38.33" width="109.23" height="88.74" rx="19.31" ry="19.31" id="el_LGNDAB6saGs"/><rect x="102.77" y="39.54" width="58.32" height="83.62" rx="29.16" ry="29.16" id="el_XZ3kbtvjews"/><rect x="1.65" y="79.35" width="128.59" height="8.08" rx="4.04" ry="4.04" id="el_XRxydcHf8iq"/><circle cx="129.18" cy="105.42" r="24.07" id="el_781DKqaTVWF"/><rect x="11.07" y="87.68" width="55.69" height="37.47" rx="18.09" ry="18.09" id="el_ESWFFHGxv0s"/><rect x="43.17" y="81.35" width="39.91" height="33.2" rx="6.68" ry="6.68" id="el_d4Ykdh7voD-"/><rect x="48.68" y="87.42" width="28.68" height="21.64" rx="3.68" ry="3.68" id="el_UsHhQam1YHl"/><g id="el_-CNybAZK5Kg_LSwl-PU-z" data-animator-group="true" data-animator-type="2"><ellipse cx="45.97" cy="133.31" rx="7.94" ry="6.24" id="el_-CNybAZK5Kg"/></g><rect x="23.97" y="124.89" width="35.22" height="10.27" rx="4.13" ry="4.13" id="el_At2P61fV_3Q"/></g><script>(function(){var a=document.querySelector('#el_LHBcUczl_'),b=a.querySelectorAll('style'),c=function(d){b.forEach(function(f){var g=f.textContent;g&amp;&amp;(f.textContent=g.replace(/transform-box:[^;\r\n]*/gi,'transform-box: '+d))})};c('initial'),window.requestAnimationFrame(function(){return c('fill-box')})})();</script></svg>