<svg xmlns="http://www.w3.org/2000/svg" viewBox="0 0 472 416" id="el_vvbRPfrQK"><style>@-webkit-keyframes el_J1JBRbNw96a_3LhIf454k_Animation{20%{-webkit-transform: scale(1, 1);transform: scale(1, 1);}40%{-webkit-transform: scale(1, 0);transform: scale(1, 0);}60%{-webkit-transform: scale(1, 1);transform: scale(1, 1);}0%{-webkit-transform: scale(1, 1);transform: scale(1, 1);}100%{-webkit-transform: scale(1, 1);transform: scale(1, 1);}}@keyframes el_J1JBRbNw96a_3LhIf454k_Animation{20%{-webkit-transform: scale(1, 1);transform: scale(1, 1);}40%{-webkit-transform: scale(1, 0);transform: scale(1, 0);}60%{-webkit-transform: scale(1, 1);transform: scale(1, 1);}0%{-webkit-transform: scale(1, 1);transform: scale(1, 1);}100%{-webkit-transform: scale(1, 1);transform: scale(1, 1);}}#el_vvbRPfrQK *{-webkit-animation-duration: 0.5s;animation-duration: 0.5s;-webkit-animation-iteration-count: infinite;animation-iteration-count: infinite;-webkit-animation-timing-function: cubic-bezier(0, 0, 1, 1);animation-timing-function: cubic-bezier(0, 0, 1, 1);}#el_N61JM6yRZe{fill: #0071bc;-webkit-transform: translate(-364.14px, -279.77px);transform: translate(-364.14px, -279.77px);}#el_wWCJVyyhjX{fill: #333;}#el_D1b_q1HAuP{fill: #eec09b;}#el_ucCHwh2i_P{fill: #666;}#el_VuUexW6DrO{fill: #eec09b;}#el_mTsRvRikN2{fill: #1a1a1a;-webkit-transform: translate(1022.67px, 1068.15px) rotate(-180deg);transform: translate(1022.67px, 1068.15px) rotate(-180deg);}#el_lAxykmv0lD{fill: #1a1a1a;}#el_ESlHTFGDp6{fill: #1a1a1a;-webkit-transform: translate(1038.73px, 1083.84px) rotate(-180deg);transform: translate(1038.73px, 1083.84px) rotate(-180deg);}#el_1qotyVbhrZ{fill: #b3b3b3;-webkit-transform: translate(1038.35px, 1095.85px) rotate(-180deg);transform: translate(1038.35px, 1095.85px) rotate(-180deg);}#el_7iHe6bUIQY{fill: #1a1a1a;-webkit-transform: translate(1156.7px, 1068.15px) rotate(-180deg);transform: translate(1156.7px, 1068.15px) rotate(-180deg);}#el_wBQ3jrsqB-{fill: #1a1a1a;}#el_ILbf1B_65n{fill: #1a1a1a;-webkit-transform: translate(1172.77px, 1083.84px) rotate(-180deg);transform: translate(1172.77px, 1083.84px) rotate(-180deg);}#el_z9HIEYEsgm{fill: #b3b3b3;-webkit-transform: translate(1172.39px, 1095.85px) rotate(-180deg);transform: translate(1172.39px, 1095.85px) rotate(-180deg);}#el_-075HCKtfI{fill: #29abe2;-webkit-transform: translate(-364.14px, -279.77px);transform: translate(-364.14px, -279.77px);}#el_zMc9bb2897I{fill: #eec09b;-webkit-transform: translate(1082.58px, 596.14px) rotate(-180deg);transform: translate(1082.58px, 596.14px) rotate(-180deg);}#el_HsZ3oHp3PsP{fill: #42210b;-webkit-transform: translate(936.2px, 753.05px) rotate(-162.14deg);transform: translate(936.2px, 753.05px) rotate(-162.14deg);}#el_crh0dB6-qAD{fill: #42210b;-webkit-transform: translate(977.01px, 423.17px) rotate(-180deg);transform: translate(977.01px, 423.17px) rotate(-180deg);}#el_4FhyoxJJ8TK{fill: #42210b;}#el_gz2WGK4TeuV{fill: #42210b;-webkit-transform: translate(1082.58px, 335.89px) rotate(180deg);transform: translate(1082.58px, 335.89px) rotate(180deg);}#el__nWUWxRzvu2{fill: #ebc19f;-webkit-transform: translate(1097.33px, 496.35px) rotate(-180deg);transform: translate(1097.33px, 496.35px) rotate(-180deg);}#el_Hpa5-dThmKn{fill: #1a1a1a;-webkit-transform: translate(-364.14px, -279.77px);transform: translate(-364.14px, -279.77px);}#el_8dCVDsO3fWx{fill: #ebc19f;-webkit-transform: translate(1102.92px, 445.17px) rotate(-180deg);transform: translate(1102.92px, 445.17px) rotate(-180deg);}#el_O732q2tXOx1{fill: #42210b;-webkit-transform: translate(988.19px, 442.46px) rotate(180deg);transform: translate(988.19px, 442.46px) rotate(180deg);}#el_JALgIeNDXWJ{fill: #1a1a1a;-webkit-transform: translate(1120.17px, 446.54px) rotate(180deg);transform: translate(1120.17px, 446.54px) rotate(180deg);}#el_AbMYTgRLD_9{fill: #ebc19f;}#el_skgjZuVjo9z{fill: #ebc19f;-webkit-transform: translate(1174.24px, 492.61px) rotate(-180deg);transform: translate(1174.24px, 492.61px) rotate(-180deg);}#el_xrEbfmp2fAw{fill: #1a1a1a;-webkit-transform: translate(1125.82px, 475.67px) rotate(-180deg);transform: translate(1125.82px, 475.67px) rotate(-180deg);}#el_EryCSQaFOj4{fill: #ebc19f;-webkit-transform: translate(1126.02px, 476.26px) rotate(-180deg);transform: translate(1126.02px, 476.26px) rotate(-180deg);}#el_J1JBRbNw96a{fill: #fff;}#el_BJ9k4hO6mEB{fill: #42210b;-webkit-transform: translate(1168.9px, 539.83px) rotate(-180deg);transform: translate(1168.9px, 539.83px) rotate(-180deg);}#el_Sy5hqvS89LI{fill: #8c6239;-webkit-transform: translate(837.24px, 937.76px) rotate(-180deg);transform: translate(837.24px, 937.76px) rotate(-180deg);}#el_Nl2kbP7PztF{fill: #754c24;}#el_cTQ6jQIAKo7{fill: #4d4d4d;}#el_0VAQB054axJ{fill: #999;}#el_L5RPCTsMFAd{fill: #333;}#el_J1JBRbNw96a_3LhIf454k{-webkit-animation-name: el_J1JBRbNw96a_3LhIf454k_Animation;animation-name: el_J1JBRbNw96a_3LhIf454k_Animation;-webkit-transform-origin: 50% 50%;transform-origin: 50% 50%;transform-box: fill-box;-webkit-transform: scale(1, 1);transform: scale(1, 1);}</style><defs/><title>character-desk</title><g id="el_cC4Hnd4Smv" data-name="Layer 3"><path d="M744.65,446.67h32.88a25,25,0,0,1,25,24.95V581.05H744.65A25,25,0,0,1,719.7,556.1V471.62A25,25,0,0,1,744.65,446.67Z" id="el_N61JM6yRZe"/><rect x="251.45" y="194.86" width="115.14" height="63.21" rx="22.41" ry="22.41" id="el_wWCJVyyhjX"/><circle cx="412.92" cy="301.28" r="25.43" id="el_D1b_q1HAuP"/><polygon points="421.46 300.72 421.46 343.04 421.46 409.87 373.45 409.87 373.45 343.04 355.55 343.04 355.55 409.87 306.43 409.87 306.43 343.04 306.43 300.72 421.46 300.72" id="el_ucCHwh2i_P"/><circle cx="306.43" cy="301.28" r="25.43" id="el_VuUexW6DrO"/><rect x="670.58" y="658.28" width="45.65" height="31.37" id="el_mTsRvRikN2"/><circle cx="352.09" cy="394.19" r="15.68" id="el_lAxykmv0lD"/><rect x="670.96" y="673.96" width="60.96" height="15.68" id="el_ESlHTFGDp6"/><rect x="670.58" y="685.97" width="61.34" height="3.68" id="el_1qotyVbhrZ"/><rect x="737.6" y="658.28" width="45.65" height="31.37" id="el_7iHe6bUIQY"/><circle cx="419.11" cy="394.19" r="15.68" id="el_wBQ3jrsqB-"/><rect x="737.97" y="673.96" width="60.96" height="15.68" id="el_ILbf1B_65n"/><rect x="737.6" y="685.97" width="61.34" height="3.68" id="el_z9HIEYEsgm"/><path d="M672.65,446.67H756.9c15.79,0,28.7,12.6,28.7,28V581.05H644V474.68C644,459.27,656.86,446.67,672.65,446.67Z" id="el_-075HCKtfI"/></g><g id="el__obFrOIKC7d" data-name="Layer 2"><rect x="698.1" y="429.36" width="50.53" height="17.2" id="el_zMc9bb2897I"/><rect x="690.56" y="389" width="81.54" height="50.46" rx="25.23" ry="25.23" id="el_HsZ3oHp3PsP"/><rect x="647" y="303.46" width="47.15" height="96.01" rx="23.57" ry="23.57" id="el_crh0dB6-qAD"/><ellipse cx="396.99" cy="38.33" rx="31.4" ry="38.33" id="el_4FhyoxJJ8TK"/><rect x="666.23" y="286.79" width="114.27" height="42.08" rx="21.04" ry="21.04" id="el_gz2WGK4TeuV"/><rect x="678.92" y="341.41" width="103.64" height="93.31" rx="37.23" ry="37.23" id="el__nWUWxRzvu2"/><path d="M768.19,365.8v19.84a6.7,6.7,0,0,0,6.68,6.68h26.55a6.7,6.7,0,0,0,6.68-6.68V365.8a6.7,6.7,0,0,0-6.68-6.68H774.87A6.7,6.7,0,0,0,768.19,365.8Zm5.61,4.3a3.7,3.7,0,0,1,3.68-3.68h21.33a3.7,3.7,0,0,1,3.68,3.68v14.28a3.69,3.69,0,0,1-3.68,3.68H777.48a3.69,3.69,0,0,1-3.68-3.68Z" id="el_Hpa5-dThmKn"/><rect x="678.92" y="318.1" width="109.23" height="88.74" rx="19.31" ry="19.31" id="el_8dCVDsO3fWx"/><rect x="647" y="319.31" width="58.32" height="83.62" rx="29.16" ry="29.16" id="el_O732q2tXOx1"/><rect x="677.86" y="359.12" width="128.59" height="8.08" rx="4.04" ry="4.04" id="el_JALgIeNDXWJ"/><circle cx="314.77" cy="105.42" r="24.07" id="el_AbMYTgRLD_9"/><rect x="741.35" y="367.45" width="55.69" height="37.47" rx="18.09" ry="18.09" id="el_skgjZuVjo9z"/><rect x="725.03" y="361.12" width="39.91" height="33.2" rx="6.68" ry="6.68" id="el_xrEbfmp2fAw"/><rect x="730.74" y="367.19" width="28.68" height="21.64" rx="3.68" ry="3.68" id="el_EryCSQaFOj4"/><g id="el_J1JBRbNw96a_3LhIf454k" data-animator-group="true" data-animator-type="2"><ellipse cx="397.99" cy="133.31" rx="7.94" ry="6.24" id="el_J1JBRbNw96a"/></g><rect x="748.91" y="404.67" width="35.22" height="10.27" rx="4.13" ry="4.13" id="el_BJ9k4hO6mEB"/><rect x="370.12" y="520.87" width="461.15" height="175.79" rx="12" ry="12" id="el_Sy5hqvS89LI"/><rect y="234.1" width="472.27" height="27.21" rx="12" ry="12" id="el_Nl2kbP7PztF"/><rect x="75" y="228.9" width="129.47" height="6.19" id="el_cTQ6jQIAKo7"/><rect x="119.82" y="220.67" width="39.82" height="7.97" id="el_0VAQB054axJ"/><rect x="56.26" y="99.25" width="165.81" height="121.41" rx="6.82" ry="6.82" id="el_L5RPCTsMFAd"/><rect x="66.13" y="109.3" width="147.2" height="86.57" rx="6.82" ry="6.82" id="el_hiq87HYyana"/></g><script>(function(){var a=document.querySelector('#el_vvbRPfrQK'),b=a.querySelectorAll('style'),c=function(d){b.forEach(function(f){var g=f.textContent;g&amp;&amp;(f.textContent=g.replace(/transform-box:[^;\r\n]*/gi,'transform-box: '+d))})};c('initial'),window.requestAnimationFrame(function(){return c('fill-box')})})();</script></svg>