<svg xmlns="http://www.w3.org/2000/svg" viewBox="0 0 552.8 366.4"><defs><style>.cls-1{stroke:#000;}.cls-1,.cls-5,.cls-6{stroke-miterlimit:10;}.cls-2{fill:gray;}.cls-3{fill:#fcfafc;}.cls-4{fill:#c7c8c2;}.cls-5,.cls-6{fill:none;stroke:#fff;}.cls-5{stroke-width:7px;}.cls-6{stroke-width:3px;}.cls-7{font-size:36px;fill:#ed1e79;font-family:Px437_IBM_MDA, Px437 IBM MDA;}</style></defs><title>x-y-screen</title><g id="Layer_2" data-name="Layer 2"><rect class="cls-1" x="78.25" y="23.81" width="394.07" height="262.72"/><path class="cls-2" d="M480.42,0h-407A18.3,18.3,0,0,0,55.2,18.25v289H498.67v-289A18.31,18.31,0,0,0,480.42,0Z"/><path class="cls-3" d="M0,334.15H0A32.34,32.34,0,0,0,32.25,366.4h488.3a32.34,32.34,0,0,0,32.25-32.25H0Z"/><polygon class="cls-4" points="552.8 334.15 0 334.15 55.2 307.22 498.67 307.22 552.8 334.15"/></g><g id="Layer_1" data-name="Layer 1"><rect x="78.34" y="22.25" width="394.07" height="262.72"/><line class="cls-5" x1="106.67" y1="47.07" x2="106.67" y2="243.07"/><line class="cls-5" x1="103.67" y1="49.07" x2="322.33" y2="49.07"/><line class="cls-5" x1="95.87" y1="229.83" x2="107.67" y2="244.07"/><line class="cls-5" x1="118.29" y1="229.73" x2="103.85" y2="244.17"/><line class="cls-5" x1="315.21" y1="60.28" x2="329.45" y2="48.48"/><line class="cls-5" x1="315.12" y1="37.86" x2="329.55" y2="52.3"/><line class="cls-6" x1="107.9" y1="92.35" x2="114.24" y2="92.35"/><line class="cls-6" x1="107.9" y1="139.4" x2="114.24" y2="139.4"/><line class="cls-6" x1="107.9" y1="184.56" x2="114.24" y2="184.56"/><line class="cls-6" x1="151.54" y1="51.21" x2="151.54" y2="57.55"/><line class="cls-6" x1="201.5" y1="51.21" x2="201.5" y2="57.55"/><line class="cls-6" x1="251.46" y1="51.21" x2="251.46" y2="57.55"/><text class="cls-7" transform="translate(310.17 92.35)">X</text><text class="cls-7" transform="translate(136.21 243.07)">Y</text></g></svg>