<svg xmlns="http://www.w3.org/2000/svg" viewBox="0 0 552.8 366.4"><defs><style>.cls-1{stroke:#000;stroke-miterlimit:10;}.cls-2{fill:gray;}.cls-3{fill:#fcfafc;}.cls-4{fill:#c7c8c2;}</style></defs><title>laptop-screen</title><g id="Layer_2" data-name="Layer 2"><rect class="cls-1" x="78.25" y="23.81" width="394.07" height="262.72"/><path class="cls-2" d="M480.42,0h-407A18.3,18.3,0,0,0,55.2,18.25v289H498.67v-289A18.31,18.31,0,0,0,480.42,0Z"/><path class="cls-3" d="M0,334.15H0A32.34,32.34,0,0,0,32.25,366.4h488.3a32.34,32.34,0,0,0,32.25-32.25H0Z"/><polygon class="cls-4" points="552.8 334.15 0 334.15 55.2 307.22 498.67 307.22 552.8 334.15"/></g><g id="Layer_1" data-name="Layer 1"><rect x="70.19" y="18.08" width="412.24" height="275.88"/><rect class="cls-2" x="272.22" y="152.95" width="6.13" height="6.13"/><rect class="cls-2" x="284.31" y="152.95" width="6.13" height="6.13"/><rect class="cls-2" x="260.77" y="152.95" width="6.13" height="6.13"/></g></svg>