<svg xmlns="http://www.w3.org/2000/svg" viewBox="0 0 362 372" id="el_P0xz_Dwtq"><style>@-webkit-keyframes el_GJBFlWNxm5g_WvMoqLFzI_Animation{0%{-webkit-transform: scale(1, 1);transform: scale(1, 1);}33.33%{-webkit-transform: scale(1, 1);transform: scale(1, 1);}51.85%{-webkit-transform: scale(1, 0);transform: scale(1, 0);}70.37%{-webkit-transform: scale(1, 1);transform: scale(1, 1);}100%{-webkit-transform: scale(1, 1);transform: scale(1, 1);}}@keyframes el_GJBFlWNxm5g_WvMoqLFzI_Animation{0%{-webkit-transform: scale(1, 1);transform: scale(1, 1);}33.33%{-webkit-transform: scale(1, 1);transform: scale(1, 1);}51.85%{-webkit-transform: scale(1, 0);transform: scale(1, 0);}70.37%{-webkit-transform: scale(1, 1);transform: scale(1, 1);}100%{-webkit-transform: scale(1, 1);transform: scale(1, 1);}}#el_P0xz_Dwtq *{-webkit-animation-duration: 0.9s;animation-duration: 0.9s;-webkit-animation-iteration-count: infinite;animation-iteration-count: infinite;-webkit-animation-timing-function: cubic-bezier(0, 0, 1, 1);animation-timing-function: cubic-bezier(0, 0, 1, 1);}#el_WtxmVYU5J2{fill: #ff55af;}#el_0sFds1OnUf{fill: #6d257d;-webkit-transform: translate(836.99px, 913.24px) rotate(-180deg);transform: translate(836.99px, 913.24px) rotate(-180deg);}#el_1Vly95eUYL{fill: #d9e021;}#el_r0uaqDKlPD{fill: #231f20;-webkit-transform: translate(-474.1px, -299.12px);transform: translate(-474.1px, -299.12px);}#el_8FJuN0prbn{fill: #da9f5c;-webkit-transform: translate(-474.1px, -299.12px);transform: translate(-474.1px, -299.12px);}#el_oGT6gI1iiV{fill: #9cc06f;-webkit-transform: translate(-474.1px, -299.12px);transform: translate(-474.1px, -299.12px);}#el_rm5MSQDm-E{fill: #bbd18b;-webkit-transform: translate(-474.1px, -299.12px);transform: translate(-474.1px, -299.12px);}#el_4feO5JJ1ix{fill: #bbd18b;-webkit-transform: translate(-474.1px, -299.12px);transform: translate(-474.1px, -299.12px);}#el_OAts4s-PSL{fill: #da9f5c;-webkit-transform: translate(-474.1px, -299.12px);transform: translate(-474.1px, -299.12px);}#el_c0IZSK2GaI{fill: #da9f5c;-webkit-transform: translate(-474.1px, -299.12px);transform: translate(-474.1px, -299.12px);}#el_NGCj3KXEK-{fill: #e6e6e6;}#el_qMCBHGtytU{fill: #fff;}#el_fshSDbDQTr{fill: #fff;-webkit-transform: translate(-474.1px, -299.12px);transform: translate(-474.1px, -299.12px);}#el_GJBFlWNxm5g{fill: #fff;-webkit-transform: translate(-474.1px, -299.12px);transform: translate(-474.1px, -299.12px);}#el_GJBFlWNxm5g_WvMoqLFzI{-webkit-animation-name: el_GJBFlWNxm5g_WvMoqLFzI_Animation;animation-name: el_GJBFlWNxm5g_WvMoqLFzI_Animation;-webkit-transform-origin: 50% 50%;transform-origin: 50% 50%;transform-box: fill-box;-webkit-transform: scale(1, 1);transform: scale(1, 1);}</style><defs/><title>character</title><g id="el_P61x4wK5l9" data-name="Layer 3"><rect x="141.5" y="146.65" width="170.01" height="92.07" rx="45.18" ry="45.18" id="el_WtxmVYU5J2"/></g><g id="el_MIF7tP2qiN" data-name="Layer 2"><rect x="500.16" y="540.93" width="310.76" height="130.51" id="el_0sFds1OnUf"/><rect y="214.75" width="362.31" height="27.21" rx="13.6" ry="13.6" id="el_1Vly95eUYL"/><path d="M649.76,366.38a334.29,334.29,0,0,0,0,35.28c.38,8.69,1.64,17.33,1.64,26,5.82-2.44,10.62-6.54,16.81-8.36s16.23-.91,22.48-.91c0-3.77,2.11-8.6.49-12.07-1.09-2.33-6.76-6.79-8.71-8.31-2.81-2.2-5.66-3.85-7.49-6.9-2.54-4.28-1.1-7.5-1.57-12.43-.24-2.46,1.51-6,.39-8.3-1.77-3.58-10-4.82-12.11-8.89-3.08-6,.4-12.67,6.52-13.63.24,5.7.7,18.61,5.59,22.52,4.74-11.3-1.86-25,4.59-36.53,5-4.33,11.16-3.82,16.7-2.05,16,5.12,27,18.84,29.16,35.38.54,4.18,0,8.41.38,12.6s.48,8.63-1.12,12.58c-2.34,5.78-8.67,6.62-11.82,11.42-2.15,3.29.2,10.84.2,14.64,15.88,0,37-.31,44.52,16.81,1.32-3.14.77-6.71.86-10.09.12-5.06.82-10,.82-15.12,0-13.18,1.68-26.38-1.08-39.48-1.64-7.83-5.82-14.91-7.76-22.68-2.48-10-1-20.55-7-29.41-8.59-12.69-23-19.32-37.89-19.32-3.6,0-7.5-.37-10.92,1-3.73,1.46-6.47,4.67-9.24,7.43l-15.13,4.61a20.41,20.41,0,0,0-7.34,4c-2.47,2.12-4.43,4.69-8,17.42" id="el_r0uaqDKlPD"/><path d="M674,366.33h-2.52c-.53-6.52-2.84-12.74-3.36-19.32-7.54,2.58-10.76,13.29-4,18.89,2.14,1.78,4.73,2,7.38,2.12,0,8.7-.23,17.33,4.26,25.18,3,5.25,9.69,7,12.52,11.93,2,3.47.86,9.42.86,13.29h-2.52c.5,7.34,6.77,9,10.46,14.5,2.29,3.39,1,8.7,2.3,12.85,4.2,1.42,2.93-7.31,4.77-11.47,2.16-4.88,7.07-5.44,8.88-10.25,1-2.64-.23-4.93-.82-7.45a24.72,24.72,0,0,1-.12-10.69c1.39-5,9.34-7,12-11.86,1.88-3.45,1.21-8,1.21-11.75,0-10,0-22-4.58-31.09C715,339.88,704.32,333.33,692.45,330c-5.79-1.63-12-2.63-16.12,2.81-2.34,3.11-2,6.34-2.19,10C673.75,350.62,674,358.51,674,366.33Z" id="el_8FJuN0prbn"/><path d="M666.4,509.14c1.32,5.69,5.76,4.94,13.21,4.73,10.11-.29,16.79-1.88,22.87-10.68,9-13,16.51-33.79,19.81-49,1.78-8.2,3.72-16.85,4.62-25.2.43-4-.12-7.43,3.5-9.78-5-2.1-12.24-.73-17.65-.73,0,3.47.16,5-2.1,7.84-2,2.62-5.5,4-7.11,6.95-1.77,3.27-1.69,8.8-2.54,12.52h-1.68c-1.14-4.4-.4-11.06-2.53-14.9-3.19-5.75-9.26-5.21-10.23-12.45-6.7,0-14.44-.64-21,.84-3.64.81-6.95,1-9.88,3.27a32.6,32.6,0,0,0-5.76,5.68c-9.9,13.42-2.94,22.84,1.76,36.12,2.84,7.08,5,14.54,7.46,21.77,2.67,7.77,4.33,12.67,6.59,20.58C666.06,507.91,666.11,507.92,666.4,509.14Z" id="el_oGT6gI1iiV"/><path d="M743.1,513.87c3-4.6,15.87-57.75,15.87-63.06,0-4.33.62-9.22-.53-13.44-4-14.7-16.33-18.94-30.59-18.94-.81,9-2.39,16.71-4.08,25.66-3.93,20.87-10,43.35-23.26,61.18-5.74,6.13-4.86,5.24-12.87,7.87-3.42,1.12-16.76-.17-20.33-1.14,2.51,2.7,9.49,3.47,13.41,3.47" id="el_rm5MSQDm-E"/><path d="M743.1,513.87" id="el_4feO5JJ1ix"/><path d="M648.63,513.87c1.32-5.09,1.32-5.09,2.14-9.29,1.8-9.16,6.34-25.87,5.41-27.41-.83-3.38-3.63-10.34-5-13.91-2.47-8-3.25-9.41-5.72-16,0,0-.69-1.84-3.4,12-2.51,16.26-7.69,38.37-10.1,54.65" id="el_OAts4s-PSL"/><path d="M759.24,452.49c-3.37,3.5-4.78,20.59-6.57,28-3.72,7.19,2.07,26,2.39,33.34h16.88c-.48-7.57-8.56-42.14-10-49.62C761.25,460.33,761.32,456,759.24,452.49Z" id="el_c0IZSK2GaI"/><rect x="167.32" y="139.98" width="118.26" height="77.93" rx="6.82" ry="6.82" id="el_NGCj3KXEK-"/><circle cx="226.45" cy="178.94" r="8.84" id="el_qMCBHGtytU"/><path d="M702.75,467.72a.82.82,0,0,1-1.16-1.07,4.61,4.61,0,0,1,3.42-2.38C708,463.69,704.89,466.29,702.75,467.72Z" id="el_fshSDbDQTr"/><g id="el_GJBFlWNxm5g_WvMoqLFzI" data-animator-group="true" data-animator-type="2"><path d="M698.68,391.89c4,0,7.19-2.94,7.19-6.57H691.5C691.5,389,694.72,391.89,698.68,391.89Z" id="el_GJBFlWNxm5g"/></g></g><script>(function(){var a=document.querySelector('#el_P0xz_Dwtq'),b=a.querySelectorAll('style'),c=function(d){b.forEach(function(f){var g=f.textContent;g&amp;&amp;(f.textContent=g.replace(/transform-box:[^;\r\n]*/gi,'transform-box: '+d))})};c('initial'),window.requestAnimationFrame(function(){return c('fill-box')})})();</script></svg>